<svg xmlns="http://www.w3.org/2000/svg" xmlns:xlink="http://www.w3.org/1999/xlink" width="500" zoomAndPan="magnify" viewBox="0 0 375 374.999991" height="500" preserveAspectRatio="xMidYMid meet" version="1.0"><defs><g/><clipPath id="8ce2311de2"><path d="M 179 77.761719 L 198 77.761719 L 198 96 L 179 96 Z M 179 77.761719 " clip-rule="nonzero"/></clipPath><clipPath id="fbcb71eb12"><path d="M 126.464844 90 L 144 90 L 144 103 L 126.464844 103 Z M 126.464844 90 " clip-rule="nonzero"/></clipPath><clipPath id="4a1eafcc8e"><path d="M 231 90 L 248.714844 90 L 248.714844 103 L 231 103 Z M 231 90 " clip-rule="nonzero"/></clipPath></defs><g clip-path="url(#8ce2311de2)"><path fill="#ffffff" d="M 197.261719 86.882812 C 197.261719 87.480469 197.203125 88.074219 197.085938 88.660156 C 196.96875 89.25 196.796875 89.820312 196.566406 90.371094 C 196.339844 90.925781 196.058594 91.449219 195.726562 91.949219 C 195.394531 92.445312 195.019531 92.90625 194.597656 93.328125 C 194.171875 93.753906 193.714844 94.132812 193.21875 94.464844 C 192.722656 94.796875 192.195312 95.078125 191.644531 95.304688 C 191.09375 95.535156 190.523438 95.707031 189.9375 95.824219 C 189.351562 95.941406 188.761719 96 188.164062 96 C 187.566406 96 186.976562 95.941406 186.390625 95.824219 C 185.804688 95.707031 185.234375 95.535156 184.683594 95.304688 C 184.128906 95.078125 183.605469 94.796875 183.109375 94.464844 C 182.613281 94.132812 182.152344 93.753906 181.730469 93.328125 C 181.308594 92.90625 180.933594 92.445312 180.601562 91.949219 C 180.269531 91.449219 179.988281 90.925781 179.757812 90.371094 C 179.53125 89.820312 179.359375 89.25 179.242188 88.660156 C 179.125 88.074219 179.066406 87.480469 179.066406 86.882812 C 179.066406 86.285156 179.125 85.691406 179.242188 85.105469 C 179.359375 84.519531 179.53125 83.949219 179.757812 83.394531 C 179.988281 82.84375 180.269531 82.316406 180.601562 81.820312 C 180.933594 81.320312 181.308594 80.859375 181.730469 80.4375 C 182.152344 80.015625 182.613281 79.636719 183.109375 79.304688 C 183.605469 78.972656 184.128906 78.691406 184.683594 78.460938 C 185.234375 78.230469 185.804688 78.058594 186.390625 77.941406 C 186.976562 77.824219 187.566406 77.765625 188.164062 77.765625 C 188.761719 77.765625 189.351562 77.824219 189.9375 77.941406 C 190.523438 78.058594 191.09375 78.230469 191.644531 78.460938 C 192.195312 78.691406 192.722656 78.972656 193.21875 79.304688 C 193.714844 79.636719 194.171875 80.015625 194.597656 80.4375 C 195.019531 80.859375 195.394531 81.320312 195.726562 81.820312 C 196.058594 82.316406 196.339844 82.84375 196.566406 83.394531 C 196.796875 83.949219 196.96875 84.519531 197.085938 85.105469 C 197.203125 85.691406 197.261719 86.285156 197.261719 86.882812 Z M 197.261719 86.882812 " fill-opacity="1" fill-rule="nonzero"/></g><path fill="#ffffff" d="M 168.347656 159.664062 C 164.113281 161.757812 158.929688 160.117188 156.777344 155.996094 L 134.9375 114.25 C 132.785156 110.128906 134.472656 105.097656 138.710938 103.003906 C 142.949219 100.910156 148.132812 102.550781 150.285156 106.671875 L 172.125 148.417969 C 174.277344 152.539062 172.589844 157.570312 168.347656 159.664062 Z M 168.347656 159.664062 " fill-opacity="1" fill-rule="nonzero"/><path fill="#ffffff" d="M 160.542969 159.488281 C 156.328125 157.359375 154.683594 152.3125 156.875 148.210938 L 179.09375 106.652344 C 181.28125 102.550781 186.480469 100.957031 190.695312 103.085938 C 194.914062 105.214844 196.558594 110.261719 194.367188 114.363281 L 172.148438 155.921875 C 169.960938 160.023438 164.765625 161.617188 160.542969 159.488281 Z M 160.542969 159.488281 " fill-opacity="1" fill-rule="nonzero"/><path fill="#ffffff" d="M 213.714844 159.617188 C 209.480469 161.710938 204.296875 160.070312 202.144531 155.949219 L 180.300781 114.199219 C 178.148438 110.082031 179.835938 105.050781 184.074219 102.957031 C 188.3125 100.859375 193.496094 102.503906 195.648438 106.621094 L 217.488281 148.371094 C 219.644531 152.488281 217.953125 157.523438 213.714844 159.617188 Z M 213.714844 159.617188 " fill-opacity="1" fill-rule="nonzero"/><path fill="#ffffff" d="M 205.910156 159.441406 C 201.691406 157.3125 200.050781 152.265625 202.242188 148.164062 L 224.457031 106.605469 C 226.648438 102.503906 231.84375 100.910156 236.0625 103.039062 C 240.28125 105.167969 241.921875 110.214844 239.734375 114.3125 L 217.515625 155.875 C 215.324219 159.972656 210.128906 161.570312 205.910156 159.441406 Z M 205.910156 159.441406 " fill-opacity="1" fill-rule="nonzero"/><g clip-path="url(#fbcb71eb12)"><path fill="#ffffff" d="M 137.992188 90.972656 L 129.117188 95.335938 C 127.238281 96.261719 126.460938 98.53125 127.390625 100.414062 C 128.316406 102.289062 130.59375 103.0625 132.476562 102.136719 L 141.351562 97.773438 C 143.230469 96.847656 144.007812 94.578125 143.078125 92.699219 C 142.152344 90.820312 139.871094 90.046875 137.992188 90.972656 Z M 137.992188 90.972656 " fill-opacity="1" fill-rule="nonzero"/></g><g clip-path="url(#4a1eafcc8e)"><path fill="#ffffff" d="M 242.695312 102.277344 L 233.824219 97.914062 C 231.945312 96.988281 231.167969 94.71875 232.09375 92.835938 C 233.023438 90.960938 235.300781 90.1875 237.183594 91.113281 L 246.054688 95.476562 C 247.9375 96.402344 248.710938 98.671875 247.785156 100.550781 C 246.855469 102.429688 244.578125 103.203125 242.695312 102.277344 Z M 242.695312 102.277344 " fill-opacity="1" fill-rule="nonzero"/></g><g fill="#ffffff" fill-opacity="1"><g transform="translate(97.188931, 213.830669)"><g><path d="M 5.53125 0 L 0.6875 -45.265625 L 9.53125 -45.265625 L 12.0625 -16.703125 L 14.59375 -45.265625 L 23.03125 -45.265625 L 25.453125 -16.703125 L 27.875 -45.265625 L 36.828125 -45.265625 L 31.875 0 L 21.015625 0 L 18.75 -21.8125 L 16.59375 0 Z M 5.53125 0 "/></g></g></g><g fill="#ffffff" fill-opacity="1"><g transform="translate(134.702444, 213.830669)"><g><path d="M 2 0 L 2 -45.265625 L 20.125 -45.265625 L 20.125 -36.515625 L 11.21875 -36.515625 L 11.21875 -27.71875 L 19.75 -27.71875 L 19.75 -19.171875 L 11.21875 -19.171875 L 11.21875 -8.796875 L 20.703125 -8.796875 L 20.703125 0 Z M 2 0 "/></g></g></g><g fill="#ffffff" fill-opacity="1"><g transform="translate(156.409699, 213.830669)"><g><path d="M 2 -45.265625 L 15.90625 -45.265625 C 18.125 -45.265625 19.835938 -44.757812 21.046875 -43.75 C 22.253906 -42.75 23.066406 -41.34375 23.484375 -39.53125 C 23.910156 -37.726562 24.125 -35.421875 24.125 -32.609375 C 24.125 -30.046875 23.789062 -28.046875 23.125 -26.609375 C 22.457031 -25.171875 21.300781 -24.171875 19.65625 -23.609375 C 21.019531 -23.328125 22.007812 -22.640625 22.625 -21.546875 C 23.238281 -20.460938 23.546875 -18.988281 23.546875 -17.125 L 23.453125 0 L 14.59375 0 L 14.59375 -17.703125 C 14.59375 -18.960938 14.347656 -19.769531 13.859375 -20.125 C 13.367188 -20.476562 12.472656 -20.65625 11.171875 -20.65625 L 11.171875 0 L 2 0 Z M 13.375 -28.5 C 14.644531 -28.5 15.28125 -29.867188 15.28125 -32.609375 C 15.28125 -33.804688 15.226562 -34.703125 15.125 -35.296875 C 15.019531 -35.898438 14.828125 -36.3125 14.546875 -36.53125 C 14.265625 -36.757812 13.859375 -36.875 13.328125 -36.875 L 11.21875 -36.875 L 11.21875 -28.5 Z M 13.375 -28.5 "/></g></g></g><g fill="#ffffff" fill-opacity="1"><g transform="translate(181.541644, 213.830669)"><g><path d="M 2 0 L 2 -45.265625 L 10.953125 -45.265625 L 10.953125 -27.140625 L 15.171875 -45.265625 L 24.28125 -45.265625 L 19.234375 -24.546875 L 25.34375 0 L 15.96875 0 L 11.015625 -21.921875 L 11.015625 0 Z M 2 0 "/></g></g></g><g fill="#ffffff" fill-opacity="1"><g transform="translate(206.410157, 213.830669)"><g><path d="M 0.796875 0 L 5.15625 -45.265625 L 20.5 -45.265625 L 24.8125 0 L 16.234375 0 L 15.59375 -7.328125 L 10.109375 -7.328125 L 9.59375 0 Z M 10.796875 -14.546875 L 14.90625 -14.546875 L 12.90625 -37.5625 L 12.484375 -37.5625 Z M 10.796875 -14.546875 "/></g></g></g><g fill="#ffffff" fill-opacity="1"><g transform="translate(231.963611, 213.830669)"><g><path d="M 12.484375 0.421875 C 8.765625 0.421875 6 -0.628906 4.1875 -2.734375 C 2.375 -4.847656 1.46875 -7.976562 1.46875 -12.125 L 1.46875 -45.265625 L 10.28125 -45.265625 L 10.28125 -12.484375 C 10.28125 -11.046875 10.414062 -9.921875 10.6875 -9.109375 C 10.96875 -8.304688 11.566406 -7.90625 12.484375 -7.90625 C 13.398438 -7.90625 14 -8.300781 14.28125 -9.09375 C 14.5625 -9.882812 14.703125 -11.015625 14.703125 -12.484375 L 14.703125 -45.265625 L 23.5 -45.265625 L 23.5 -12.125 C 23.5 -7.976562 22.59375 -4.847656 20.78125 -2.734375 C 18.976562 -0.628906 16.210938 0.421875 12.484375 0.421875 Z M 12.484375 0.421875 "/></g></g></g><g fill="#ffffff" fill-opacity="1"><g transform="translate(256.937502, 213.830669)"><g><path d="M 5.90625 0 L 5.90625 -36.5625 L 0.53125 -36.5625 L 0.53125 -45.265625 L 20.34375 -45.265625 L 20.34375 -36.5625 L 14.96875 -36.5625 L 14.96875 0 Z M 5.90625 0 "/></g></g></g></svg>